PathFileType	4	(X/Y/Z)	D:\TRACE\v60_Jaco2_6-2-23\BothDRS_Motion2_2-platform.trc
DataRate	CameraRate	NumFrames	NumMarkers	Units	OrigDataRate	OrigDataStartFrame	OrigNumFrames
100.00	100.00	      66	5	mm	100.00	1876	      7500
Frame#	Time	Left_Front			Right_Front			Left_Aft			Right_Aft			Post			
		X1	Y1	Z1	X2	Y2	Z2	X3	Y3	Z3	X4	Y4	Z4	X5	Y5	Z5	

1876	18.750	-796.35065	-22.66169	-645.73956	773.62732	-20.95236	-651.15247	-703.87268	28.46952	488.52420	737.77087	29.07665	497.17349	-10.20375	1259.94250	-1038.54956	
1877	18.760	-795.17908	-21.01184	-645.55042	774.77148	-19.84381	-651.15564	-703.06226	28.06761	488.68985	738.88062	28.21972	497.58405	-9.08312	1262.25305	-1034.96143	
1878	18.770	-793.89160	-20.02685	-645.34204	775.79498	-18.69682	-650.55267	-701.73810	26.98570	488.98743	740.10083	27.39559	498.07703	-8.12932	1264.26917	-1030.87170	
1879	18.780	-792.64081	-18.81409	-645.09454	777.18011	-16.93032	-650.20337	-701.01086	26.42420	489.44534	741.23303	26.64029	498.77225	-6.34483	1266.39136	-1026.90002	
1880	18.790	-791.62982	-17.32535	-644.86102	778.36694	-15.70936	-650.23840	-699.61078	25.28439	489.81854	742.37311	25.41150	498.92737	-5.67549	1268.39673	-1022.40662	
1881	18.800	-790.53741	-15.94193	-644.56628	779.28772	-14.34546	-649.83759	-698.70001	24.70600	490.08524	743.39673	24.46689	499.48019	-4.27753	1270.66919	-1018.31744	
1882	18.810	-789.00348	-14.89829	-644.27759	780.66077	-12.89164	-649.42609	-697.48218	23.50316	490.41541	744.78455	23.67365	499.92175	-3.53489	1272.85535	-1013.96350	
1883	18.820	-788.30743	-12.66571	-643.93494	781.68848	-11.49042	-649.30908	-696.39862	22.79093	490.70526	745.64191	22.58568	500.16708	-2.64667	1275.40063	-1009.37042	
1884	18.830	-787.20978	-11.40005	-643.69067	782.82166	-9.95897	-649.07007	-695.19330	21.58625	491.25977	747.15778	21.60408	500.59647	-1.43780	1277.55615	-1005.16577	
1885	18.840	-786.29968	-9.84371	-643.21838	783.93481	-8.50996	-648.60364	-694.00861	20.59184	491.49863	748.08759	20.59004	501.02692	-0.70694	1279.83118	-1000.84210	
1886	18.850	-784.93152	-8.16588	-643.21576	784.87299	-6.95628	-648.23883	-693.05341	19.58460	491.99341	749.22888	19.52955	501.47281	0.63280	1282.09387	-997.42511	
1887	18.860	-783.77179	-6.63436	-642.60413	786.13934	-5.31615	-648.13556	-691.83990	18.46141	492.25211	750.22150	18.63031	501.93375	2.10070	1284.41101	-994.58435	
1888	18.870	-782.67938	-5.00271	-642.19904	787.26263	-3.61051	-647.76282	-690.71576	17.56018	492.73282	751.76233	17.60171	502.31561	2.92998	1286.79810	-992.08856	
1889	18.880	-781.73804	-3.67531	-642.06433	788.39471	-2.38349	-647.28235	-689.34894	16.19050	493.30981	752.81726	16.31564	502.71292	3.96227	1288.85681	-989.66571	
1890	18.890	-780.67371	-2.52423	-641.62970	789.55658	-1.05954	-647.17828	-687.89789	14.80005	494.04941	753.74194	15.22251	503.20059	5.32205	1291.17957	-987.55688	
1891	18.900	-779.28430	-0.63156	-641.53821	790.64880	0.46266	-646.74725	-687.26178	14.15733	493.92166	755.03333	14.11547	503.54596	6.85231	1293.48206	-985.22156	
1892	18.910	-778.30078	1.11815	-640.87500	791.68982	2.29630	-646.15326	-686.08685	12.83220	494.39648	755.77466	12.94298	504.08270	8.00919	1296.10278	-982.41870	
1893	18.920	-777.49554	2.71934	-640.42786	792.78137	4.11568	-645.76636	-685.08923	11.57759	494.90912	757.21167	11.64753	504.66885	9.04519	1298.85413	-979.79279	
1894	18.930	-776.52399	4.35077	-640.18146	794.06232	5.64729	-645.44928	-684.10504	10.88991	495.01749	757.75586	10.49250	504.23090	9.89792	1301.20215	-977.12842	
1895	18.940	-775.20483	5.38551	-639.72882	794.89343	7.09981	-645.13409	-682.85712	9.72409	495.63251	759.09247	9.52032	504.57086	10.51253	1303.59326	-974.26459	
1896	18.950	-774.05157	7.11376	-639.65985	796.13062	8.81272	-644.77222	-681.79242	8.36349	495.98340	760.19226	8.42999	505.02762	12.19551	1305.64819	-970.89575	
1897	18.960	-773.08264	8.77480	-639.21814	796.96796	10.42258	-644.50891	-680.94904	7.35971	496.12631	761.14368	7.30925	505.35608	13.83080	1307.75659	-967.36536	
1898	18.970	-772.17053	10.41330	-638.73889	797.98346	11.44497	-644.04565	-679.87732	6.48515	496.64017	762.21045	6.12496	505.66278	14.54430	1310.07068	-963.88544	
1899	18.980	-771.06372	12.32988	-638.43213	798.86322	13.20914	-643.79901	-678.67914	5.49825	496.95834	763.14612	5.00140	505.89664	15.56507	1312.37976	-960.20441	
1900	18.990	-769.95441	13.04133	-638.07306	799.91254	14.79048	-643.53381	-677.96735	4.60653	497.25391	764.14575	4.09773	506.18735	16.35794	1314.49097	-956.19153	
1901	19.000	-768.91864	14.42185	-637.81439	801.01984	16.33751	-643.10205	-676.80310	3.46793	497.39301	764.94220	2.91400	506.65762	16.96961	1316.58850	-952.44122	
1902	19.010	-768.10565	16.30471	-637.43915	801.88470	17.65885	-642.84344	-676.07568	2.46103	497.68542	765.70557	1.73132	507.01251	18.13779	1318.91797	-948.04541	
1903	19.020	-767.14380	17.99953	-636.94275	802.97327	19.11907	-642.13354	-675.18762	1.32522	498.07922	767.31476	0.63268	507.23398	18.86438	1321.19128	-943.46515	
1904	19.030	-766.08295	19.78165	-636.51953	803.94135	21.02577	-641.71460	-673.98169	0.22291	498.51907	768.09863	-0.39750	507.56534	20.14456	1323.54431	-939.03247	
1905	19.040	-765.24890	21.11152	-636.00018	804.87128	22.71849	-641.36792	-673.06708	-0.77115	498.78256	768.95270	-1.65405	507.92215	20.84137	1325.77490	-934.74164	
1906	19.050	-764.30402	22.68372	-635.67725	805.79584	24.14038	-641.10352	-672.39026	-1.81758	499.24448	769.99176	-2.64067	508.35657	21.65937	1328.10205	-930.41888	
1907	19.060	-763.40320	24.41616	-635.53375	806.63531	25.75084	-640.70050	-671.35693	-3.12634	499.41809	770.67310	-3.90621	508.74738	22.35916	1330.36853	-926.78192	
1908	19.070	-762.54346	25.99755	-635.01080	807.29797	27.20729	-640.19537	-670.43866	-4.39219	499.89658	771.45483	-5.12919	509.07562	23.86870	1332.83337	-922.70728	
1909	19.080	-761.71912	27.70985	-634.33569	808.24298	28.86604	-639.78772	-669.65765	-5.27319	500.30847	772.43915	-6.29060	509.45041	24.93483	1334.91846	-920.11102	
1910	19.090	-760.97058	29.15080	-633.90283	809.04950	30.38648	-639.41986	-668.84601	-6.21060	500.62579	773.26160	-7.30582	509.74652	25.41708	1337.28088	-917.32617	
1911	19.100	-760.18323	30.40235	-633.60986	809.95953	31.80918	-638.95648	-667.85046	-7.35903	500.88751	774.09650	-8.27790	510.21350	26.51134	1339.27185	-914.44574	
1912	19.110	-759.17651	32.07315	-633.53986	810.70776	33.29214	-638.64636	-667.14008	-8.36318	501.39526	774.90326	-9.22459	510.51453	27.21350	1341.15051	-911.77209	
1913	19.120	-758.50684	33.38766	-632.95667	811.51208	34.56041	-638.26080	-666.53101	-9.43902	501.46347	775.52222	-10.47605	510.68301	28.21608	1343.25623	-909.05573	
1914	19.130	-757.59979	34.57845	-632.49133	812.28741	35.98153	-637.82813	-665.67542	-10.37949	501.85876	776.27405	-11.77478	510.94260	28.63616	1345.33960	-905.73163	
1915	19.140	-757.00677	36.34082	-632.08527	812.81458	37.37541	-637.64258	-664.86786	-11.41996	502.08774	776.99811	-12.67838	511.23050	29.22112	1347.30042	-902.73102	
1916	19.150	-756.11005	37.71212	-631.67316	813.66229	38.79292	-637.11591	-664.38361	-12.23903	502.28931	777.97766	-13.46729	511.58267	29.63903	1349.05444	-899.77057	
1917	19.160	-755.87256	38.76662	-631.25494	814.33624	40.24804	-636.79272	-663.75977	-13.35683	502.56085	778.77222	-14.51813	511.70792	30.53737	1350.98901	-896.28882	
1918	19.170	-755.24103	40.48091	-630.94788	814.94165	41.61346	-636.52118	-662.90082	-14.45641	503.01840	778.80151	-15.67530	512.07361	31.57359	1352.77466	-892.38599	
1919	19.180	-754.60907	41.84372	-630.61163	815.63544	42.95550	-635.73248	-662.31531	-15.39917	503.16089	779.56738	-16.81499	512.42731	31.87102	1354.70459	-889.14227	
1920	19.190	-754.01843	43.08476	-630.03339	816.05707	44.39406	-635.32373	-661.85883	-16.28244	503.32312	780.21368	-17.53367	512.77319	32.47138	1356.70874	-885.72864	
1921	19.200	-753.20508	44.73009	-629.64233	816.46545	45.68118	-635.07440	-661.09534	-17.39265	503.78415	780.54810	-18.64770	512.91608	33.03838	1358.73425	-882.32703	
1922	19.210	-752.74719	45.78391	-629.24670	817.21783	47.11673	-634.65118	-660.63513	-18.35426	504.12817	781.27460	-19.78037	513.19598	33.61501	1360.50281	-879.01147	
1923	19.220	-752.21820	47.01690	-628.83423	817.77008	48.43758	-634.17926	-659.77319	-19.74740	504.17770	781.56750	-20.88624	513.50708	34.04681	1362.23657	-875.84595	
1924	19.230	-751.50867	48.54885	-628.65729	818.14948	49.63852	-633.92688	-659.70685	-20.07573	504.25079	782.28839	-21.57298	513.85815	34.57754	1364.03296	-872.99994	
1925	19.240	-751.42542	49.78111	-628.36517	818.42230	50.81397	-633.62415	-659.20734	-21.00093	504.51349	782.63397	-22.33720	514.15649	34.91618	1365.75928	-870.50439	
1926	19.250	-751.06110	51.14561	-627.98895	818.65137	51.96029	-633.15308	-659.16559	-21.41311	505.06223	782.87787	-23.48799	514.20496	34.90009	1367.27747	-868.05640	
1927	19.260	-750.84283	52.05824	-627.65594	819.07709	53.23393	-632.91071	-658.72540	-22.55464	505.14258	783.13245	-24.15141	514.30206	35.54942	1368.85059	-865.69806	
1928	19.270	-750.59973	53.16814	-627.23987	819.28424	54.13784	-632.53174	-658.60321	-23.26169	505.36142	783.41284	-25.09552	514.38263	35.96156	1370.32471	-863.28418	
1929	19.280	-750.48828	53.92998	-626.96240	819.40588	54.85794	-632.38599	-658.47943	-24.15559	505.58319	783.45996	-25.62976	514.73804	36.38264	1371.60791	-860.99823	
1930	19.290	-750.28027	55.03439	-626.62750	819.51379	56.33328	-631.84845	-658.56610	-25.32972	506.00525	783.54327	-26.27038	514.94867	36.30372	1373.05286	-858.81836	
1931	19.300	-749.92773	56.54708	-626.09698	819.85687	57.35479	-631.53461	-658.06891	-25.80145	506.09277	783.81952	-27.42954	515.81061	36.58143	1374.84387	-856.58148	
1932	19.310	-749.87366	57.58069	-625.68469	820.09137	58.28215	-630.86523	-657.88080	-26.59607	506.50366	783.87219	-28.35867	515.82440	36.84056	1376.49109	-854.05396	
1933	19.320	-749.99164	58.48455	-625.33997	820.09100	59.37149	-630.79443	-657.90985	-27.30824	506.77109	784.10724	-28.75014	516.26428	36.82858	1377.85217	-851.42712	
1934	19.330	-750.01691	59.09579	-625.00757	820.06982	60.39084	-630.31238	-658.02594	-28.01675	506.71185	784.30249	-29.77246	516.33398	37.02251	1379.24097	-848.34302	
1935	19.340	-750.03766	60.10049	-624.45422	819.94995	61.28207	-630.10870	-658.01935	-28.83964	506.84128	784.21545	-30.57955	516.27429	37.09523	1380.12732	-845.62244	
1936	19.350	-750.00824	61.47778	-624.46277	820.05206	62.14791	-629.89215	-657.93762	-29.48111	506.97549	784.00366	-31.16332	516.41638	36.67948	1381.42261	-842.70947	
1937	19.360	-750.13422	62.46957	-624.03217	819.96100	63.06399	-629.61810	-657.90948	-29.94216	507.33636	784.18262	-31.84918	516.61340	36.09432	1382.74951	-840.01440	
1938	19.370	-750.31305	63.03055	-623.73688	819.74847	63.88120	-629.20428	-658.10956	-30.16015	507.32919	783.94110	-32.03988	517.39923	36.31259	1383.65869	-837.86884	
1939	19.380	-750.67542	63.44949	-623.64825	819.33398	64.43903	-629.03748	-658.52704	-30.93345	507.53879	783.41046	-31.90924	516.70453	35.94485	1384.40649	-836.38971	
1940	19.390	-750.85547	64.12461	-623.42371	819.21930	65.27576	-628.66174	-658.59546	-31.42435	507.93073	783.49512	-32.98367	516.69922	36.06833	1385.46045	-834.87958	
1941	19.400	-751.06512	65.21637	-623.33154	818.87933	66.03404	-628.48566	-658.98853	-32.03363	507.66052	783.16602	-33.86121	516.86511	35.75723	1386.29016	-834.08148	
